<mxfile host="app.diagrams.net" modified="2023-04-16T16:33:37.925Z" agent="Mozilla/5.0 (Windows NT 10.0; Win64; x64) AppleWebKit/537.36 (KHTML, like Gecko) Chrome/112.0.0.0 Safari/537.36 Edg/112.0.1722.39" etag="i8gsYu3RQSVrwY9-k2aN" version="21.1.5" type="github">
  <diagram name="Page-1" id="e7010aeb-78dc-98c9-4316-6516fd28bfe3">
    <mxGraphModel dx="2074" dy="756" grid="1" gridSize="10" guides="1" tooltips="1" connect="1" arrows="1" fold="1" page="1" pageScale="1.5" pageWidth="1100" pageHeight="850" background="none" math="0" shadow="0">
      <root>
        <mxCell id="0" style=";html=1;" />
        <mxCell id="1" style=";html=1;" parent="0" />
        <mxCell id="UJuoiDyPD3hgijsfFGam-24" value="" style="shape=table;startSize=0;container=1;collapsible=0;childLayout=tableLayout;fontSize=16;" vertex="1" parent="1">
          <mxGeometry x="42" y="40" width="1558" height="720" as="geometry" />
        </mxCell>
        <mxCell id="UJuoiDyPD3hgijsfFGam-25" value="" style="shape=tableRow;horizontal=0;startSize=0;swimlaneHead=0;swimlaneBody=0;strokeColor=inherit;top=0;left=0;bottom=0;right=0;collapsible=0;dropTarget=0;fillColor=default;points=[[0,0.5],[1,0.5]];portConstraint=eastwest;fontSize=20;align=left;fontFamily=Saira;fontSource=https%3A%2F%2Ffonts.googleapis.com%2Fcss%3Ffamily%3DSaira;" vertex="1" parent="UJuoiDyPD3hgijsfFGam-24">
          <mxGeometry width="1558" height="60" as="geometry" />
        </mxCell>
        <mxCell id="UJuoiDyPD3hgijsfFGam-26" value="PROCESS" style="shape=partialRectangle;html=1;whiteSpace=wrap;connectable=0;strokeColor=inherit;overflow=hidden;fillColor=none;top=0;left=0;bottom=0;right=0;pointerEvents=1;fontSize=20;align=left;fontFamily=Saira;fontSource=https%3A%2F%2Ffonts.googleapis.com%2Fcss%3Ffamily%3DSaira;fontStyle=1;spacingTop=0;spacing=12;" vertex="1" parent="UJuoiDyPD3hgijsfFGam-25">
          <mxGeometry width="238" height="60" as="geometry">
            <mxRectangle width="238" height="60" as="alternateBounds" />
          </mxGeometry>
        </mxCell>
        <mxCell id="UJuoiDyPD3hgijsfFGam-27" value="SOFTWARE DEVELOPMENT" style="shape=partialRectangle;html=1;whiteSpace=wrap;connectable=0;strokeColor=inherit;overflow=hidden;fillColor=none;top=0;left=0;bottom=0;right=0;pointerEvents=1;fontSize=20;align=left;fontFamily=Saira;fontSource=https%3A%2F%2Ffonts.googleapis.com%2Fcss%3Ffamily%3DSaira;fontStyle=1;spacingTop=0;spacing=12;" vertex="1" parent="UJuoiDyPD3hgijsfFGam-25">
          <mxGeometry x="238" width="600" height="60" as="geometry">
            <mxRectangle width="600" height="60" as="alternateBounds" />
          </mxGeometry>
        </mxCell>
        <mxCell id="UJuoiDyPD3hgijsfFGam-28" value="SOFTWARE DELIVERY" style="shape=partialRectangle;html=1;whiteSpace=wrap;connectable=0;strokeColor=inherit;overflow=hidden;fillColor=none;top=0;left=0;bottom=0;right=0;pointerEvents=1;fontSize=20;align=left;fontFamily=Saira;fontSource=https%3A%2F%2Ffonts.googleapis.com%2Fcss%3Ffamily%3DSaira;fontStyle=1;spacingTop=0;spacing=12;" vertex="1" parent="UJuoiDyPD3hgijsfFGam-25">
          <mxGeometry x="838" width="720" height="60" as="geometry">
            <mxRectangle width="720" height="60" as="alternateBounds" />
          </mxGeometry>
        </mxCell>
        <mxCell id="UJuoiDyPD3hgijsfFGam-29" value="" style="shape=tableRow;horizontal=0;startSize=0;swimlaneHead=0;swimlaneBody=0;strokeColor=inherit;top=0;left=0;bottom=0;right=0;collapsible=0;dropTarget=0;fillColor=none;points=[[0,0.5],[1,0.5]];portConstraint=eastwest;fontSize=16;" vertex="1" parent="UJuoiDyPD3hgijsfFGam-24">
          <mxGeometry y="60" width="1558" height="60" as="geometry" />
        </mxCell>
        <mxCell id="UJuoiDyPD3hgijsfFGam-30" value="" style="shape=partialRectangle;html=1;whiteSpace=wrap;connectable=0;strokeColor=inherit;overflow=hidden;fillColor=none;top=0;left=0;bottom=0;right=0;pointerEvents=1;fontSize=16;" vertex="1" parent="UJuoiDyPD3hgijsfFGam-29">
          <mxGeometry width="238" height="60" as="geometry">
            <mxRectangle width="238" height="60" as="alternateBounds" />
          </mxGeometry>
        </mxCell>
        <mxCell id="UJuoiDyPD3hgijsfFGam-31" value="" style="shape=partialRectangle;html=1;whiteSpace=wrap;connectable=0;strokeColor=inherit;overflow=hidden;fillColor=none;top=0;left=0;bottom=0;right=0;pointerEvents=1;fontSize=16;" vertex="1" parent="UJuoiDyPD3hgijsfFGam-29">
          <mxGeometry x="238" width="600" height="60" as="geometry">
            <mxRectangle width="600" height="60" as="alternateBounds" />
          </mxGeometry>
        </mxCell>
        <mxCell id="UJuoiDyPD3hgijsfFGam-32" value="" style="shape=partialRectangle;html=1;whiteSpace=wrap;connectable=0;strokeColor=inherit;overflow=hidden;fillColor=none;top=0;left=0;bottom=0;right=0;pointerEvents=1;fontSize=16;" vertex="1" parent="UJuoiDyPD3hgijsfFGam-29">
          <mxGeometry x="838" width="720" height="60" as="geometry">
            <mxRectangle width="720" height="60" as="alternateBounds" />
          </mxGeometry>
        </mxCell>
        <mxCell id="UJuoiDyPD3hgijsfFGam-33" value="" style="shape=tableRow;horizontal=0;startSize=0;swimlaneHead=0;swimlaneBody=0;strokeColor=inherit;top=0;left=0;bottom=0;right=0;collapsible=0;dropTarget=0;fillColor=none;points=[[0,0.5],[1,0.5]];portConstraint=eastwest;fontSize=16;" vertex="1" parent="UJuoiDyPD3hgijsfFGam-24">
          <mxGeometry y="120" width="1558" height="60" as="geometry" />
        </mxCell>
        <mxCell id="UJuoiDyPD3hgijsfFGam-34" value="" style="shape=partialRectangle;html=1;whiteSpace=wrap;connectable=0;strokeColor=inherit;overflow=hidden;fillColor=none;top=0;left=0;bottom=0;right=0;pointerEvents=1;fontSize=16;" vertex="1" parent="UJuoiDyPD3hgijsfFGam-33">
          <mxGeometry width="238" height="60" as="geometry">
            <mxRectangle width="238" height="60" as="alternateBounds" />
          </mxGeometry>
        </mxCell>
        <mxCell id="UJuoiDyPD3hgijsfFGam-35" value="" style="shape=partialRectangle;html=1;whiteSpace=wrap;connectable=0;strokeColor=inherit;overflow=hidden;fillColor=none;top=0;left=0;bottom=0;right=0;pointerEvents=1;fontSize=16;" vertex="1" parent="UJuoiDyPD3hgijsfFGam-33">
          <mxGeometry x="238" width="600" height="60" as="geometry">
            <mxRectangle width="600" height="60" as="alternateBounds" />
          </mxGeometry>
        </mxCell>
        <mxCell id="UJuoiDyPD3hgijsfFGam-36" value="" style="shape=partialRectangle;html=1;whiteSpace=wrap;connectable=0;strokeColor=inherit;overflow=hidden;fillColor=none;top=0;left=0;bottom=0;right=0;pointerEvents=1;fontSize=16;" vertex="1" parent="UJuoiDyPD3hgijsfFGam-33">
          <mxGeometry x="838" width="720" height="60" as="geometry">
            <mxRectangle width="720" height="60" as="alternateBounds" />
          </mxGeometry>
        </mxCell>
        <mxCell id="UJuoiDyPD3hgijsfFGam-69" style="shape=tableRow;horizontal=0;startSize=0;swimlaneHead=0;swimlaneBody=0;strokeColor=inherit;top=0;left=0;bottom=0;right=0;collapsible=0;dropTarget=0;fillColor=none;points=[[0,0.5],[1,0.5]];portConstraint=eastwest;fontSize=16;" vertex="1" parent="UJuoiDyPD3hgijsfFGam-24">
          <mxGeometry y="180" width="1558" height="60" as="geometry" />
        </mxCell>
        <mxCell id="UJuoiDyPD3hgijsfFGam-70" style="shape=partialRectangle;html=1;whiteSpace=wrap;connectable=0;strokeColor=inherit;overflow=hidden;fillColor=none;top=0;left=0;bottom=0;right=0;pointerEvents=1;fontSize=16;" vertex="1" parent="UJuoiDyPD3hgijsfFGam-69">
          <mxGeometry width="238" height="60" as="geometry">
            <mxRectangle width="238" height="60" as="alternateBounds" />
          </mxGeometry>
        </mxCell>
        <mxCell id="UJuoiDyPD3hgijsfFGam-71" style="shape=partialRectangle;html=1;whiteSpace=wrap;connectable=0;strokeColor=inherit;overflow=hidden;fillColor=none;top=0;left=0;bottom=0;right=0;pointerEvents=1;fontSize=16;" vertex="1" parent="UJuoiDyPD3hgijsfFGam-69">
          <mxGeometry x="238" width="600" height="60" as="geometry">
            <mxRectangle width="600" height="60" as="alternateBounds" />
          </mxGeometry>
        </mxCell>
        <mxCell id="UJuoiDyPD3hgijsfFGam-72" style="shape=partialRectangle;html=1;whiteSpace=wrap;connectable=0;strokeColor=inherit;overflow=hidden;fillColor=none;top=0;left=0;bottom=0;right=0;pointerEvents=1;fontSize=16;" vertex="1" parent="UJuoiDyPD3hgijsfFGam-69">
          <mxGeometry x="838" width="720" height="60" as="geometry">
            <mxRectangle width="720" height="60" as="alternateBounds" />
          </mxGeometry>
        </mxCell>
        <mxCell id="UJuoiDyPD3hgijsfFGam-65" style="shape=tableRow;horizontal=0;startSize=0;swimlaneHead=0;swimlaneBody=0;strokeColor=inherit;top=0;left=0;bottom=0;right=0;collapsible=0;dropTarget=0;fillColor=none;points=[[0,0.5],[1,0.5]];portConstraint=eastwest;fontSize=16;" vertex="1" parent="UJuoiDyPD3hgijsfFGam-24">
          <mxGeometry y="240" width="1558" height="60" as="geometry" />
        </mxCell>
        <mxCell id="UJuoiDyPD3hgijsfFGam-66" style="shape=partialRectangle;html=1;whiteSpace=wrap;connectable=0;strokeColor=inherit;overflow=hidden;fillColor=none;top=0;left=0;bottom=0;right=0;pointerEvents=1;fontSize=16;" vertex="1" parent="UJuoiDyPD3hgijsfFGam-65">
          <mxGeometry width="238" height="60" as="geometry">
            <mxRectangle width="238" height="60" as="alternateBounds" />
          </mxGeometry>
        </mxCell>
        <mxCell id="UJuoiDyPD3hgijsfFGam-67" style="shape=partialRectangle;html=1;whiteSpace=wrap;connectable=0;strokeColor=inherit;overflow=hidden;fillColor=none;top=0;left=0;bottom=0;right=0;pointerEvents=1;fontSize=16;" vertex="1" parent="UJuoiDyPD3hgijsfFGam-65">
          <mxGeometry x="238" width="600" height="60" as="geometry">
            <mxRectangle width="600" height="60" as="alternateBounds" />
          </mxGeometry>
        </mxCell>
        <mxCell id="UJuoiDyPD3hgijsfFGam-68" style="shape=partialRectangle;html=1;whiteSpace=wrap;connectable=0;strokeColor=inherit;overflow=hidden;fillColor=none;top=0;left=0;bottom=0;right=0;pointerEvents=1;fontSize=16;" vertex="1" parent="UJuoiDyPD3hgijsfFGam-65">
          <mxGeometry x="838" width="720" height="60" as="geometry">
            <mxRectangle width="720" height="60" as="alternateBounds" />
          </mxGeometry>
        </mxCell>
        <mxCell id="UJuoiDyPD3hgijsfFGam-61" style="shape=tableRow;horizontal=0;startSize=0;swimlaneHead=0;swimlaneBody=0;strokeColor=inherit;top=0;left=0;bottom=0;right=0;collapsible=0;dropTarget=0;fillColor=none;points=[[0,0.5],[1,0.5]];portConstraint=eastwest;fontSize=16;" vertex="1" parent="UJuoiDyPD3hgijsfFGam-24">
          <mxGeometry y="300" width="1558" height="60" as="geometry" />
        </mxCell>
        <mxCell id="UJuoiDyPD3hgijsfFGam-62" style="shape=partialRectangle;html=1;whiteSpace=wrap;connectable=0;strokeColor=inherit;overflow=hidden;fillColor=none;top=0;left=0;bottom=0;right=0;pointerEvents=1;fontSize=16;" vertex="1" parent="UJuoiDyPD3hgijsfFGam-61">
          <mxGeometry width="238" height="60" as="geometry">
            <mxRectangle width="238" height="60" as="alternateBounds" />
          </mxGeometry>
        </mxCell>
        <mxCell id="UJuoiDyPD3hgijsfFGam-63" style="shape=partialRectangle;html=1;whiteSpace=wrap;connectable=0;strokeColor=inherit;overflow=hidden;fillColor=none;top=0;left=0;bottom=0;right=0;pointerEvents=1;fontSize=16;" vertex="1" parent="UJuoiDyPD3hgijsfFGam-61">
          <mxGeometry x="238" width="600" height="60" as="geometry">
            <mxRectangle width="600" height="60" as="alternateBounds" />
          </mxGeometry>
        </mxCell>
        <mxCell id="UJuoiDyPD3hgijsfFGam-64" style="shape=partialRectangle;html=1;whiteSpace=wrap;connectable=0;strokeColor=inherit;overflow=hidden;fillColor=none;top=0;left=0;bottom=0;right=0;pointerEvents=1;fontSize=16;" vertex="1" parent="UJuoiDyPD3hgijsfFGam-61">
          <mxGeometry x="838" width="720" height="60" as="geometry">
            <mxRectangle width="720" height="60" as="alternateBounds" />
          </mxGeometry>
        </mxCell>
        <mxCell id="UJuoiDyPD3hgijsfFGam-57" style="shape=tableRow;horizontal=0;startSize=0;swimlaneHead=0;swimlaneBody=0;strokeColor=inherit;top=0;left=0;bottom=0;right=0;collapsible=0;dropTarget=0;fillColor=none;points=[[0,0.5],[1,0.5]];portConstraint=eastwest;fontSize=16;" vertex="1" parent="UJuoiDyPD3hgijsfFGam-24">
          <mxGeometry y="360" width="1558" height="60" as="geometry" />
        </mxCell>
        <mxCell id="UJuoiDyPD3hgijsfFGam-58" style="shape=partialRectangle;html=1;whiteSpace=wrap;connectable=0;strokeColor=inherit;overflow=hidden;fillColor=none;top=0;left=0;bottom=0;right=0;pointerEvents=1;fontSize=16;" vertex="1" parent="UJuoiDyPD3hgijsfFGam-57">
          <mxGeometry width="238" height="60" as="geometry">
            <mxRectangle width="238" height="60" as="alternateBounds" />
          </mxGeometry>
        </mxCell>
        <mxCell id="UJuoiDyPD3hgijsfFGam-59" style="shape=partialRectangle;html=1;whiteSpace=wrap;connectable=0;strokeColor=inherit;overflow=hidden;fillColor=none;top=0;left=0;bottom=0;right=0;pointerEvents=1;fontSize=16;" vertex="1" parent="UJuoiDyPD3hgijsfFGam-57">
          <mxGeometry x="238" width="600" height="60" as="geometry">
            <mxRectangle width="600" height="60" as="alternateBounds" />
          </mxGeometry>
        </mxCell>
        <mxCell id="UJuoiDyPD3hgijsfFGam-60" style="shape=partialRectangle;html=1;whiteSpace=wrap;connectable=0;strokeColor=inherit;overflow=hidden;fillColor=none;top=0;left=0;bottom=0;right=0;pointerEvents=1;fontSize=16;" vertex="1" parent="UJuoiDyPD3hgijsfFGam-57">
          <mxGeometry x="838" width="720" height="60" as="geometry">
            <mxRectangle width="720" height="60" as="alternateBounds" />
          </mxGeometry>
        </mxCell>
        <mxCell id="UJuoiDyPD3hgijsfFGam-53" style="shape=tableRow;horizontal=0;startSize=0;swimlaneHead=0;swimlaneBody=0;strokeColor=inherit;top=0;left=0;bottom=0;right=0;collapsible=0;dropTarget=0;fillColor=none;points=[[0,0.5],[1,0.5]];portConstraint=eastwest;fontSize=16;" vertex="1" parent="UJuoiDyPD3hgijsfFGam-24">
          <mxGeometry y="420" width="1558" height="60" as="geometry" />
        </mxCell>
        <mxCell id="UJuoiDyPD3hgijsfFGam-54" style="shape=partialRectangle;html=1;whiteSpace=wrap;connectable=0;strokeColor=inherit;overflow=hidden;fillColor=none;top=0;left=0;bottom=0;right=0;pointerEvents=1;fontSize=16;" vertex="1" parent="UJuoiDyPD3hgijsfFGam-53">
          <mxGeometry width="238" height="60" as="geometry">
            <mxRectangle width="238" height="60" as="alternateBounds" />
          </mxGeometry>
        </mxCell>
        <mxCell id="UJuoiDyPD3hgijsfFGam-55" style="shape=partialRectangle;html=1;whiteSpace=wrap;connectable=0;strokeColor=inherit;overflow=hidden;fillColor=none;top=0;left=0;bottom=0;right=0;pointerEvents=1;fontSize=16;" vertex="1" parent="UJuoiDyPD3hgijsfFGam-53">
          <mxGeometry x="238" width="600" height="60" as="geometry">
            <mxRectangle width="600" height="60" as="alternateBounds" />
          </mxGeometry>
        </mxCell>
        <mxCell id="UJuoiDyPD3hgijsfFGam-56" style="shape=partialRectangle;html=1;whiteSpace=wrap;connectable=0;strokeColor=inherit;overflow=hidden;fillColor=none;top=0;left=0;bottom=0;right=0;pointerEvents=1;fontSize=16;" vertex="1" parent="UJuoiDyPD3hgijsfFGam-53">
          <mxGeometry x="838" width="720" height="60" as="geometry">
            <mxRectangle width="720" height="60" as="alternateBounds" />
          </mxGeometry>
        </mxCell>
        <mxCell id="UJuoiDyPD3hgijsfFGam-49" style="shape=tableRow;horizontal=0;startSize=0;swimlaneHead=0;swimlaneBody=0;strokeColor=inherit;top=0;left=0;bottom=0;right=0;collapsible=0;dropTarget=0;fillColor=none;points=[[0,0.5],[1,0.5]];portConstraint=eastwest;fontSize=16;" vertex="1" parent="UJuoiDyPD3hgijsfFGam-24">
          <mxGeometry y="480" width="1558" height="60" as="geometry" />
        </mxCell>
        <mxCell id="UJuoiDyPD3hgijsfFGam-50" style="shape=partialRectangle;html=1;whiteSpace=wrap;connectable=0;strokeColor=inherit;overflow=hidden;fillColor=none;top=0;left=0;bottom=0;right=0;pointerEvents=1;fontSize=16;" vertex="1" parent="UJuoiDyPD3hgijsfFGam-49">
          <mxGeometry width="238" height="60" as="geometry">
            <mxRectangle width="238" height="60" as="alternateBounds" />
          </mxGeometry>
        </mxCell>
        <mxCell id="UJuoiDyPD3hgijsfFGam-51" style="shape=partialRectangle;html=1;whiteSpace=wrap;connectable=0;strokeColor=inherit;overflow=hidden;fillColor=none;top=0;left=0;bottom=0;right=0;pointerEvents=1;fontSize=16;" vertex="1" parent="UJuoiDyPD3hgijsfFGam-49">
          <mxGeometry x="238" width="600" height="60" as="geometry">
            <mxRectangle width="600" height="60" as="alternateBounds" />
          </mxGeometry>
        </mxCell>
        <mxCell id="UJuoiDyPD3hgijsfFGam-52" style="shape=partialRectangle;html=1;whiteSpace=wrap;connectable=0;strokeColor=inherit;overflow=hidden;fillColor=none;top=0;left=0;bottom=0;right=0;pointerEvents=1;fontSize=16;" vertex="1" parent="UJuoiDyPD3hgijsfFGam-49">
          <mxGeometry x="838" width="720" height="60" as="geometry">
            <mxRectangle width="720" height="60" as="alternateBounds" />
          </mxGeometry>
        </mxCell>
        <mxCell id="UJuoiDyPD3hgijsfFGam-45" style="shape=tableRow;horizontal=0;startSize=0;swimlaneHead=0;swimlaneBody=0;strokeColor=inherit;top=0;left=0;bottom=0;right=0;collapsible=0;dropTarget=0;fillColor=none;points=[[0,0.5],[1,0.5]];portConstraint=eastwest;fontSize=16;" vertex="1" parent="UJuoiDyPD3hgijsfFGam-24">
          <mxGeometry y="540" width="1558" height="60" as="geometry" />
        </mxCell>
        <mxCell id="UJuoiDyPD3hgijsfFGam-46" style="shape=partialRectangle;html=1;whiteSpace=wrap;connectable=0;strokeColor=inherit;overflow=hidden;fillColor=none;top=0;left=0;bottom=0;right=0;pointerEvents=1;fontSize=16;" vertex="1" parent="UJuoiDyPD3hgijsfFGam-45">
          <mxGeometry width="238" height="60" as="geometry">
            <mxRectangle width="238" height="60" as="alternateBounds" />
          </mxGeometry>
        </mxCell>
        <mxCell id="UJuoiDyPD3hgijsfFGam-47" style="shape=partialRectangle;html=1;whiteSpace=wrap;connectable=0;strokeColor=inherit;overflow=hidden;fillColor=none;top=0;left=0;bottom=0;right=0;pointerEvents=1;fontSize=16;" vertex="1" parent="UJuoiDyPD3hgijsfFGam-45">
          <mxGeometry x="238" width="600" height="60" as="geometry">
            <mxRectangle width="600" height="60" as="alternateBounds" />
          </mxGeometry>
        </mxCell>
        <mxCell id="UJuoiDyPD3hgijsfFGam-48" style="shape=partialRectangle;html=1;whiteSpace=wrap;connectable=0;strokeColor=inherit;overflow=hidden;fillColor=none;top=0;left=0;bottom=0;right=0;pointerEvents=1;fontSize=16;" vertex="1" parent="UJuoiDyPD3hgijsfFGam-45">
          <mxGeometry x="838" width="720" height="60" as="geometry">
            <mxRectangle width="720" height="60" as="alternateBounds" />
          </mxGeometry>
        </mxCell>
        <mxCell id="UJuoiDyPD3hgijsfFGam-41" style="shape=tableRow;horizontal=0;startSize=0;swimlaneHead=0;swimlaneBody=0;strokeColor=inherit;top=0;left=0;bottom=0;right=0;collapsible=0;dropTarget=0;fillColor=none;points=[[0,0.5],[1,0.5]];portConstraint=eastwest;fontSize=16;" vertex="1" parent="UJuoiDyPD3hgijsfFGam-24">
          <mxGeometry y="600" width="1558" height="60" as="geometry" />
        </mxCell>
        <mxCell id="UJuoiDyPD3hgijsfFGam-42" style="shape=partialRectangle;html=1;whiteSpace=wrap;connectable=0;strokeColor=inherit;overflow=hidden;fillColor=none;top=0;left=0;bottom=0;right=0;pointerEvents=1;fontSize=16;" vertex="1" parent="UJuoiDyPD3hgijsfFGam-41">
          <mxGeometry width="238" height="60" as="geometry">
            <mxRectangle width="238" height="60" as="alternateBounds" />
          </mxGeometry>
        </mxCell>
        <mxCell id="UJuoiDyPD3hgijsfFGam-43" style="shape=partialRectangle;html=1;whiteSpace=wrap;connectable=0;strokeColor=inherit;overflow=hidden;fillColor=none;top=0;left=0;bottom=0;right=0;pointerEvents=1;fontSize=16;" vertex="1" parent="UJuoiDyPD3hgijsfFGam-41">
          <mxGeometry x="238" width="600" height="60" as="geometry">
            <mxRectangle width="600" height="60" as="alternateBounds" />
          </mxGeometry>
        </mxCell>
        <mxCell id="UJuoiDyPD3hgijsfFGam-44" style="shape=partialRectangle;html=1;whiteSpace=wrap;connectable=0;strokeColor=inherit;overflow=hidden;fillColor=none;top=0;left=0;bottom=0;right=0;pointerEvents=1;fontSize=16;" vertex="1" parent="UJuoiDyPD3hgijsfFGam-41">
          <mxGeometry x="838" width="720" height="60" as="geometry">
            <mxRectangle width="720" height="60" as="alternateBounds" />
          </mxGeometry>
        </mxCell>
        <mxCell id="UJuoiDyPD3hgijsfFGam-37" style="shape=tableRow;horizontal=0;startSize=0;swimlaneHead=0;swimlaneBody=0;strokeColor=inherit;top=0;left=0;bottom=0;right=0;collapsible=0;dropTarget=0;fillColor=none;points=[[0,0.5],[1,0.5]];portConstraint=eastwest;fontSize=16;" vertex="1" parent="UJuoiDyPD3hgijsfFGam-24">
          <mxGeometry y="660" width="1558" height="60" as="geometry" />
        </mxCell>
        <mxCell id="UJuoiDyPD3hgijsfFGam-38" style="shape=partialRectangle;html=1;whiteSpace=wrap;connectable=0;strokeColor=inherit;overflow=hidden;fillColor=none;top=0;left=0;bottom=0;right=0;pointerEvents=1;fontSize=16;" vertex="1" parent="UJuoiDyPD3hgijsfFGam-37">
          <mxGeometry width="238" height="60" as="geometry">
            <mxRectangle width="238" height="60" as="alternateBounds" />
          </mxGeometry>
        </mxCell>
        <mxCell id="UJuoiDyPD3hgijsfFGam-39" style="shape=partialRectangle;html=1;whiteSpace=wrap;connectable=0;strokeColor=inherit;overflow=hidden;fillColor=none;top=0;left=0;bottom=0;right=0;pointerEvents=1;fontSize=16;" vertex="1" parent="UJuoiDyPD3hgijsfFGam-37">
          <mxGeometry x="238" width="600" height="60" as="geometry">
            <mxRectangle width="600" height="60" as="alternateBounds" />
          </mxGeometry>
        </mxCell>
        <mxCell id="UJuoiDyPD3hgijsfFGam-40" style="shape=partialRectangle;html=1;whiteSpace=wrap;connectable=0;strokeColor=inherit;overflow=hidden;fillColor=none;top=0;left=0;bottom=0;right=0;pointerEvents=1;fontSize=16;" vertex="1" parent="UJuoiDyPD3hgijsfFGam-37">
          <mxGeometry x="838" width="720" height="60" as="geometry">
            <mxRectangle width="720" height="60" as="alternateBounds" />
          </mxGeometry>
        </mxCell>
      </root>
    </mxGraphModel>
  </diagram>
</mxfile>
